<svg width="455" height="333" viewBox="0 0 455 333" fill="none" xmlns="http://www.w3.org/2000/svg">
<path d="M79.208 39.536C79.208 42.1387 78.6107 44.528 77.416 46.704C76.2213 48.8373 74.3867 50.5653 71.912 51.888C69.4373 53.2107 66.3653 53.872 62.696 53.872H55.912V70H44.968V25.072H62.696C66.28 25.072 69.3093 25.6907 71.784 26.928C74.2587 28.1653 76.1147 29.872 77.352 32.048C78.5893 34.224 79.208 36.72 79.208 39.536ZM61.864 45.168C63.9547 45.168 65.512 44.6773 66.536 43.696C67.56 42.7147 68.072 41.328 68.072 39.536C68.072 37.744 67.56 36.3573 66.536 35.376C65.512 34.3947 63.9547 33.904 61.864 33.904H55.912V45.168H61.864ZM82.7295 52.08C82.7295 48.4107 83.4122 45.1893 84.7775 42.416C86.1855 39.6427 88.0842 37.5093 90.4735 36.016C92.8628 34.5227 95.5295 33.776 98.4735 33.776C100.991 33.776 103.188 34.288 105.066 35.312C106.986 36.336 108.458 37.68 109.482 39.344V34.288H120.426V70H109.482V64.944C108.415 66.608 106.922 67.952 105.002 68.976C103.124 70 100.927 70.512 98.4095 70.512C95.5082 70.512 92.8628 69.7653 90.4735 68.272C88.0842 66.736 86.1855 64.5813 84.7775 61.808C83.4122 58.992 82.7295 55.7493 82.7295 52.08ZM109.482 52.144C109.482 49.4133 108.714 47.2587 107.178 45.68C105.684 44.1013 103.85 43.312 101.674 43.312C99.4975 43.312 97.6415 44.1013 96.1055 45.68C94.6122 47.216 93.8655 49.3493 93.8655 52.08C93.8655 54.8107 94.6122 56.9867 96.1055 58.608C97.6415 60.1867 99.4975 60.976 101.674 60.976C103.85 60.976 105.684 60.1867 107.178 58.608C108.714 57.0293 109.482 54.8747 109.482 52.144ZM139.287 22.64V70H128.343V22.64H139.287ZM158.162 22.64V70H147.218V22.64H158.162ZM182.349 70.512C178.85 70.512 175.693 69.7653 172.877 68.272C170.104 66.7787 167.906 64.6453 166.285 61.872C164.706 59.0987 163.917 55.856 163.917 52.144C163.917 48.4747 164.728 45.2533 166.349 42.48C167.97 39.664 170.189 37.5093 173.005 36.016C175.821 34.5227 178.978 33.776 182.477 33.776C185.976 33.776 189.133 34.5227 191.949 36.016C194.765 37.5093 196.984 39.664 198.605 42.48C200.226 45.2533 201.037 48.4747 201.037 52.144C201.037 55.8133 200.205 59.056 198.541 61.872C196.92 64.6453 194.68 66.7787 191.821 68.272C189.005 69.7653 185.848 70.512 182.349 70.512ZM182.349 61.04C184.44 61.04 186.21 60.272 187.661 58.736C189.154 57.2 189.901 55.0027 189.901 52.144C189.901 49.2853 189.176 47.088 187.725 45.552C186.317 44.016 184.568 43.248 182.477 43.248C180.344 43.248 178.573 44.016 177.165 45.552C175.757 47.0453 175.053 49.2427 175.053 52.144C175.053 55.0027 175.736 57.2 177.101 58.736C178.509 60.272 180.258 61.04 182.349 61.04ZM222.907 59.76L230.651 34.288H242.299L229.627 70H216.123L203.451 34.288H215.163L222.907 59.76ZM277.3 25.072C282.036 25.072 286.175 26.0107 289.716 27.888C293.257 29.7653 295.988 32.4107 297.908 35.824C299.871 39.1947 300.852 43.0987 300.852 47.536C300.852 51.9307 299.871 55.8347 297.908 59.248C295.988 62.6613 293.236 65.3067 289.652 67.184C286.111 69.0613 281.993 70 277.3 70H260.468V25.072H277.3ZM276.596 60.528C280.735 60.528 283.956 59.3973 286.26 57.136C288.564 54.8747 289.716 51.6747 289.716 47.536C289.716 43.3973 288.564 40.176 286.26 37.872C283.956 35.568 280.735 34.416 276.596 34.416H271.412V60.528H276.596ZM323.032 59.76L330.776 34.288H342.424L329.752 70H316.248L303.576 34.288H315.288L323.032 59.76ZM363.287 70.512C359.788 70.512 356.631 69.7653 353.815 68.272C351.041 66.7787 348.844 64.6453 347.223 61.872C345.644 59.0987 344.855 55.856 344.855 52.144C344.855 48.4747 345.665 45.2533 347.286 42.48C348.908 39.664 351.127 37.5093 353.943 36.016C356.759 34.5227 359.916 33.776 363.415 33.776C366.913 33.776 370.071 34.5227 372.887 36.016C375.703 37.5093 377.921 39.664 379.543 42.48C381.164 45.2533 381.975 48.4747 381.975 52.144C381.975 55.8133 381.143 59.056 379.479 61.872C377.857 64.6453 375.617 66.7787 372.759 68.272C369.943 69.7653 366.785 70.512 363.287 70.512ZM363.287 61.04C365.377 61.04 367.148 60.272 368.599 58.736C370.092 57.2 370.839 55.0027 370.839 52.144C370.839 49.2853 370.113 47.088 368.663 45.552C367.255 44.016 365.505 43.248 363.415 43.248C361.281 43.248 359.511 44.016 358.103 45.552C356.695 47.0453 355.991 49.2427 355.991 52.144C355.991 55.0027 356.673 57.2 358.039 58.736C359.447 60.272 361.196 61.04 363.287 61.04ZM398.725 40.24C400.005 38.2773 401.605 36.7413 403.525 35.632C405.445 34.48 407.578 33.904 409.925 33.904V45.488H406.917C404.186 45.488 402.138 46.0853 400.773 47.28C399.407 48.432 398.725 50.48 398.725 53.424V70H387.781V34.288H398.725V40.24Z" fill="#151515"/>
<path d="M119.941 98.5993C122.052 95.076 127.158 95.0766 129.268 98.5993L150.457 133.979L132.187 140.657C131.554 140.889 131.72 141.828 132.394 141.829H137.179C137.308 141.8 137.441 141.784 137.577 141.784H218.126C218.131 141.784 218.138 141.783 218.143 141.783H227.491C228.158 141.783 228.699 142.324 228.699 142.991V145.804C228.699 146.471 228.158 147.012 227.491 147.012H223.177L232.151 165.134C232.747 166.339 231.871 167.75 230.527 167.751H126.518C125.175 167.75 124.299 166.339 124.894 165.134L130.348 154.116L120.31 160.682L101.006 173.128C100.501 173.454 100.732 174.238 101.333 174.239H118.583L158.741 174.416H244.076L287.889 130.887C296.65 139.653 305.369 148.403 314.096 157.156L334.248 114.536C336.21 110.386 342.115 110.386 344.077 114.536L390.375 212.459C392.08 216.065 389.45 220.217 385.461 220.217H346.485V230.924C405.839 228.951 452.942 230.979 454.713 241.462C454.992 243.085 454.114 244.457 453.222 245.641C420.932 288.248 340.615 332.026 226.731 332.146C225.946 332.146 225.187 332.12 224.415 332.12C247.237 326.143 263.974 311.409 266.305 294.292C266.771 290.871 267.968 282.139 263.016 274.752C253.549 260.616 233.15 264.329 231.232 255.984C230.569 253.067 231.161 245.739 243.917 237.079V179.645H108.029C107.635 180.155 107.397 180.794 107.396 181.489V232.625C121.315 232.975 135.966 233.522 150.95 234.204V201.431C150.95 200.423 151.774 199.609 152.782 199.62L196.289 200.107C197.282 200.118 198.081 200.926 198.081 201.919V235.98C198.081 236.964 197.296 237.761 196.321 237.789C193.059 240.142 188.65 244.1 185.81 250.039C184.957 251.836 183.652 254.618 183.412 258.531C183.332 259.782 183.093 263.736 184.757 267.25C188.152 274.41 195.902 272.202 201.414 279.601H201.428C201.814 280.107 205.955 285.831 204.717 292.46C203.944 296.559 201.348 299.767 197.593 302.855C184.078 313.969 155.836 323.327 150.684 325.017C142.215 323.42 134.639 321.716 128.048 320.092C127.746 320.018 40.2213 298.295 1.7138 247.483C0.914942 246.432 -0.216781 245.007 0.036063 243.291C1.4432 233.93 41.2708 231.469 94.6005 232.356V218.83H57.5273C53.3051 218.829 50.6942 214.224 52.8632 210.601L119.941 98.5993ZM326.199 231.725C328.087 231.639 329.966 231.557 331.837 231.477V220.217H326.199V231.725ZM189.292 151.171C188.625 151.171 188.084 151.712 188.084 152.379V162.968C188.084 163.635 188.625 164.176 189.292 164.176H198.996C199.663 164.176 200.204 163.635 200.204 162.968V152.379C200.204 151.712 199.663 151.171 198.996 151.171H189.292ZM204.56 151.171C203.893 151.171 203.352 151.712 203.351 152.379V162.968C203.352 163.635 203.893 164.176 204.56 164.176H214.264C214.931 164.176 215.472 163.635 215.472 162.968V152.379C215.471 151.712 214.93 151.171 214.264 151.171H204.56ZM141.583 151.168C140.916 151.168 140.375 151.709 140.375 152.376V162.966C140.375 163.632 140.916 164.173 141.583 164.174H151.287C151.954 164.174 152.495 163.633 152.495 162.966V152.376C152.495 151.709 151.954 151.168 151.287 151.168H141.583ZM156.851 151.168C156.184 151.168 155.643 151.709 155.643 152.376V162.966C155.643 163.632 156.184 164.173 156.851 164.174H166.555C167.222 164.174 167.763 163.633 167.763 162.966V152.376C167.762 151.709 167.222 151.168 166.555 151.168H156.851Z" fill="#1F1C18"/>
</svg>
