<svg width="455" height="237" viewBox="0 0 455 237" fill="none" xmlns="http://www.w3.org/2000/svg">
<path d="M119.941 2.64257C122.052 -0.881028 127.158 -0.88069 129.268 2.64257L150.458 38.0234L132.187 44.7012C131.554 44.9333 131.72 45.8723 132.394 45.873H137.175C137.305 45.8434 137.44 45.8272 137.577 45.8271H218.126C218.131 45.827 218.138 45.8262 218.143 45.8262H227.491C228.158 45.8266 228.699 46.3674 228.699 47.0342V49.8477C228.699 50.5143 228.158 51.0553 227.491 51.0557H223.177L232.151 69.1777C232.747 70.3817 231.871 71.7934 230.527 71.7939H126.518C125.175 71.7936 124.299 70.3819 124.894 69.1777L130.348 58.1592L120.31 64.7256L101.006 77.1709C100.501 77.4975 100.732 78.2812 101.333 78.2822H118.583L158.742 78.459H244.076L287.889 34.9307C296.65 43.6961 305.369 52.4464 314.096 61.1992L334.248 18.5791C336.21 14.4295 342.115 14.4293 344.077 18.5791L390.375 116.502C392.08 120.108 389.449 124.26 385.461 124.261H346.485V134.967C405.84 132.995 452.943 135.022 454.713 145.505C454.992 147.129 454.114 148.5 453.222 149.685C420.932 192.291 340.615 236.07 226.731 236.189C225.946 236.189 225.187 236.163 224.415 236.163C247.237 230.187 263.974 215.452 266.305 198.335C266.771 194.914 267.968 186.182 263.016 178.795C253.549 164.659 233.15 168.373 231.232 160.027C230.569 157.11 231.161 149.783 243.917 141.122V83.6885H108.029C107.634 84.1986 107.397 84.8369 107.396 85.5322V136.668C121.315 137.018 135.966 137.564 150.95 138.246V105.475C150.95 104.466 151.774 103.651 152.782 103.662L196.289 104.149C197.282 104.161 198.081 104.969 198.081 105.962V140.023C198.081 141.008 197.296 141.805 196.32 141.832C193.058 144.186 188.649 148.143 185.809 154.082C184.956 155.879 183.652 158.661 183.412 162.574C183.332 163.825 183.092 167.779 184.757 171.293C188.152 178.454 195.902 176.245 201.414 183.645H201.428C201.814 184.15 205.955 189.874 204.717 196.503C203.944 200.602 201.348 203.81 197.593 206.898C184.078 218.013 155.836 227.37 150.684 229.061C142.215 227.463 134.639 225.76 128.048 224.136C127.794 224.073 40.2318 202.352 1.71378 151.526C0.914939 150.475 -0.216741 149.051 0.0360505 147.334C1.44319 137.973 41.2707 135.513 94.6005 136.399V122.874H57.5273C53.3049 122.873 50.6949 118.267 52.8642 114.645L119.941 2.64257ZM326.199 135.769C328.087 135.683 329.966 135.6 331.837 135.521V124.261H326.199V135.769ZM189.292 55.2139C188.625 55.2142 188.084 55.7551 188.084 56.4219V67.0117C188.084 67.6786 188.625 68.2194 189.292 68.2197H198.996C199.663 68.2195 200.204 67.6786 200.204 67.0117V56.4219C200.204 55.7551 199.663 55.2141 198.996 55.2139H189.292ZM204.559 55.2139C203.893 55.2142 203.352 55.7551 203.351 56.4219V67.0117C203.352 67.6786 203.893 68.2194 204.559 68.2197H214.264C214.931 68.2195 215.471 67.6786 215.472 67.0117V56.4219C215.471 55.7551 214.93 55.2141 214.264 55.2139H204.559ZM141.583 55.2109C140.916 55.2112 140.375 55.7522 140.375 56.4189V67.0088C140.375 67.6757 140.916 68.2165 141.583 68.2168H151.287C151.954 68.2168 152.495 67.6759 152.495 67.0088V56.4189C152.495 55.752 151.954 55.2109 151.287 55.2109H141.583ZM156.851 55.2109C156.184 55.2113 155.643 55.7522 155.642 56.4189V67.0088C155.643 67.6757 156.184 68.2164 156.851 68.2168H166.555C167.222 68.2168 167.763 67.6759 167.763 67.0088V56.4189C167.762 55.752 167.222 55.2109 166.555 55.2109H156.851Z" fill="#1F1C18"/>
</svg>
