<svg width="128" height="128" viewBox="0 0 128 128" fill="none" xmlns="http://www.w3.org/2000/svg">
  <rect width="128" height="128" rx="28" fill="#F3EEE6"/>
  <path d="M18 86c15.8-8.6 31.1-12.7 46-12.5 14.9.2 30.2 4.4 46 12.5" stroke="#164C2B" stroke-width="7" stroke-linecap="round"/>
  <path d="M28 93c12-4.3 24-6.4 36-6.3 12 .1 24 2.2 36 6.3" stroke="#A9895C" stroke-width="4" stroke-linecap="round"/>
  <path d="M41 72V35h22.3c8.2 0 14.2 5.4 14.2 13.4S71.5 62 63.3 62H51.8v10H41Zm10.8-18.6h10.4c2.9 0 4.8-1.9 4.8-5s-1.9-5-4.8-5H51.8v10Z" fill="#2A140A"/>
  <path d="M73 72V35h15.7c11.9 0 20.3 7.6 20.3 18.5S100.6 72 88.7 72H73Zm10.8-9.5h4.4c6.1 0 10.1-3.6 10.1-9s-4-9-10.1-9h-4.4v18Z" fill="#2A140A"/>
  <path d="M67.5 52.2h9.8v7.2h-9.8z" fill="#F3EEE6"/>
</svg>
